<?xml version="1.0" standalone="no"?>
<!DOCTYPE svg PUBLIC "-//W3C//DTD SVG 20010904//EN"
 "http://www.w3.org/TR/2001/REC-SVG-20010904/DTD/svg10.dtd">
<svg version="1.0" xmlns="http://www.w3.org/2000/svg"
 width="429.000000pt" height="429.000000pt" viewBox="0 0 429.000000 429.000000"
 preserveAspectRatio="xMidYMid meet">
<metadata>
Created by potrace 1.14, written by Peter Selinger 2001-2017
</metadata>
<g transform="translate(0.000000,429.000000) scale(0.100000,-0.100000)"
fill="#000000" stroke="none">
<path d="M3227 3904 c-4 -4 -7 -40 -7 -80 0 -60 3 -72 18 -76 38 -9 50 2 54
51 5 77 -3 106 -32 109 -14 2 -29 0 -33 -4z"/>
<path d="M3015 3837 c-22 -17 -17 -42 25 -115 l31 -53 32 22 c18 13 33 23 35
25 5 3 -61 109 -76 122 -20 15 -24 15 -47 -1z"/>
<path d="M3427 3788 l-38 -63 22 -17 c35 -29 54 -22 82 31 29 53 33 81 15 99
-24 24 -45 11 -81 -50z"/>
<path d="M2847 3679 c-9 -6 -17 -21 -17 -34 0 -18 14 -32 59 -59 68 -41 69
-42 87 -18 23 29 16 51 -26 77 -57 36 -83 45 -103 34z"/>
<path d="M3163 3669 c-104 -40 -167 -134 -167 -249 1 -81 27 -143 85 -194 52
-47 94 -65 163 -70 83 -5 151 22 207 83 55 59 78 120 75 193 -9 182 -193 303
-363 237z"/>
<path d="M3578 3639 l-47 -30 16 -34 17 -35 45 27 c25 14 54 31 64 37 11 7 17
20 15 36 -4 37 -51 37 -110 -1z"/>
<path d="M2770 3441 c-13 -25 -13 -27 6 -45 11 -12 35 -16 84 -16 73 0 81 6
72 58 -4 20 -9 22 -78 22 -62 0 -75 -3 -84 -19z"/>
<path d="M3590 3420 l0 -40 58 0 c79 0 102 8 102 34 0 36 -20 46 -92 46 l-68
0 0 -40z"/>
<path d="M1110 3435 c-13 -15 -8 -1500 5 -1500 6 0 74 86 152 190 l142 190 1
445 c1 245 2 496 2 557 1 62 -2 116 -6 120 -12 12 -286 10 -296 -2z"/>
<path d="M1477 3439 c-17 -10 -18 -1020 -1 -1026 9 -3 216 264 280 362 17 26
19 55 19 337 0 170 -3 315 -7 321 -8 13 -269 18 -291 6z"/>
<path d="M3546 3253 c-9 -19 -16 -37 -14 -38 2 -2 27 -17 57 -35 60 -34 95
-34 104 1 7 26 -17 51 -81 83 l-49 25 -17 -36z"/>
<path d="M2892 3242 c-53 -31 -62 -41 -60 -62 4 -34 35 -37 90 -9 72 36 80 46
62 80 -8 16 -18 29 -22 29 -4 0 -35 -17 -70 -38z"/>
<path d="M2157 3233 c-15 -4 -60 -63 -267 -347 -24 -33 -76 -104 -115 -157
-38 -53 -114 -157 -168 -230 -53 -74 -174 -237 -267 -364 -131 -179 -166 -232
-156 -240 15 -12 384 -14 403 -2 6 4 121 156 255 338 133 182 304 414 379 515
l136 184 154 -217 c84 -120 161 -225 169 -233 12 -12 49 -15 218 -14 112 1
205 4 208 6 6 6 -22 47 -296 431 -124 174 -235 320 -248 326 -22 11 -367 14
-405 4z"/>
<path d="M3058 3137 c-20 -16 -68 -102 -68 -120 0 -8 6 -20 14 -26 25 -21 62
7 96 70 l31 58 -29 15 c-23 12 -32 13 -44 3z"/>
<path d="M3419 3121 l-23 -18 28 -48 c16 -26 37 -56 48 -67 19 -19 21 -19 39
-2 26 23 24 40 -11 102 -33 56 -46 62 -81 33z"/>
<path d="M3226 3093 c-3 -4 -6 -39 -6 -78 0 -82 13 -105 49 -85 14 7 21 21 22
43 1 18 2 46 4 62 1 17 0 37 -4 45 -6 15 -53 24 -65 13z"/>
<path d="M2125 2490 c-9 -14 -9 -149 -1 -157 7 -8 125 -11 149 -5 16 4 17 15
15 86 l-3 81 -76 3 c-51 2 -79 0 -84 -8z"/>
<path d="M2324 2488 c-11 -17 -7 -150 5 -157 21 -13 142 -5 151 10 13 19 10
131 -2 147 -13 15 -145 15 -154 0z"/>
<path d="M2122 2286 c-10 -16 -4 -149 7 -155 7 -5 114 -6 154 -2 4 1 7 37 7
81 0 44 -3 81 -7 81 -45 7 -156 3 -161 -5z"/>
<path d="M2323 2287 c-7 -11 -7 -147 0 -154 9 -8 124 -10 145 -2 18 7 20 17
20 83 0 42 -3 77 -6 77 -32 6 -155 3 -159 -4z"/>
<path d="M1858 1805 c-1 -1 -40 -6 -84 -9 -45 -4 -93 -9 -105 -11 -13 -2 -40
-6 -59 -9 -168 -23 -464 -110 -623 -185 -45 -21 -104 -49 -132 -62 -111 -52
-405 -234 -421 -261 -13 -21 8 -14 141 51 308 151 698 255 1100 295 133 13
614 15 675 3 14 -3 54 -8 90 -12 94 -9 138 -14 200 -25 30 -5 73 -12 95 -15
226 -33 700 -174 958 -285 51 -22 96 -40 101 -40 40 0 -138 110 -347 213 -163
81 -293 133 -476 193 -234 77 -402 113 -686 150 -52 6 -421 15 -427 9z"/>
<path d="M1342 1114 c-27 -19 -37 -79 -18 -109 14 -21 13 -24 -9 -45 -29 -27
-34 -46 -23 -87 11 -43 53 -65 110 -58 52 7 64 7 103 2 42 -5 48 1 26 29 -17
22 -18 28 -6 68 15 49 12 56 -21 56 -15 0 -24 -8 -29 -27 l-6 -27 -24 30 -23
29 28 28 c52 51 20 125 -54 125 -19 0 -43 -6 -54 -14z m74 -49 c6 -16 -12 -45
-28 -45 -15 0 -21 30 -8 45 16 19 29 19 36 0z m-20 -152 c29 -34 30 -39 4 -46
-24 -6 -53 20 -46 40 3 8 6 19 6 24 0 16 12 10 36 -18z"/>
<path d="M22 1087 c-16 -17 -22 -36 -22 -68 0 -57 29 -89 82 -89 29 0 36 -3
33 -17 -2 -10 -4 -21 -4 -25 -2 -14 -49 -8 -54 6 -8 21 -52 14 -54 -9 -9 -64
95 -97 150 -47 55 52 26 147 -49 157 -16 2 -31 4 -34 4 -3 1 -7 12 -8 25 -1
21 2 24 25 21 15 -1 29 -8 31 -14 2 -6 17 -11 32 -11 23 0 29 4 28 23 -1 12
-10 32 -21 45 -29 32 -105 31 -135 -1z"/>
<path d="M238 1083 c-24 -26 -25 -34 -24 -119 1 -68 6 -98 19 -118 10 -14 21
-26 25 -27 60 -9 89 -4 112 17 25 23 26 29 25 130 -1 99 -2 108 -24 125 -36
30 -101 26 -133 -8z m92 -119 c0 -83 0 -84 -25 -84 -25 0 -25 1 -25 84 0 82 0
84 25 84 25 0 25 -2 25 -84z"/>
<path d="M439 1108 c-4 -9 -4 -288 1 -289 3 -1 42 -2 88 -3 l82 -2 0 33 0 33
-55 0 c-63 0 -58 -13 -56 138 l0 92 -29 0 c-17 0 -31 -1 -31 -2z"/>
<path d="M691 978 c-18 -73 -35 -138 -38 -145 -5 -14 28 -26 51 -17 9 3 16 14
16 24 0 43 49 46 70 5 8 -16 18 -29 23 -27 4 1 16 2 28 2 15 0 19 5 15 18 -2
9 -19 74 -37 145 l-32 127 -31 0 -32 0 -33 -132z m73 -23 c3 -8 1 -15 -4 -15
-6 0 -10 7 -10 15 0 8 2 15 4 15 2 0 6 -7 10 -15z"/>
<path d="M902 963 l3 -148 30 0 c29 0 29 0 28 58 -1 57 0 58 26 55 25 -3 26
-6 25 -55 -1 -54 6 -64 42 -59 17 3 19 14 21 127 1 113 0 126 -20 147 -17 19
-31 22 -89 22 l-69 0 3 -147z m111 68 c6 -24 -3 -37 -27 -36 -13 0 -20 8 -23
25 -2 21 1 26 21 28 16 1 25 -5 29 -17z"/>
<path d="M1772 1087 c-28 -30 -30 -95 -4 -127 11 -13 35 -25 58 -29 30 -5 40
-11 42 -29 3 -18 -1 -22 -23 -22 -14 0 -28 7 -31 15 -8 20 -53 19 -61 -1 -8
-21 16 -62 41 -71 44 -15 85 -10 111 14 24 23 29 37 26 78 -4 49 -51 92 -85
79 -18 -7 -38 27 -27 45 10 16 47 10 44 -7 -2 -8 11 -12 36 -12 36 0 39 2 34
23 -3 12 -15 32 -26 45 -29 32 -105 31 -135 -1z"/>
<path d="M1970 986 c0 -118 1 -125 24 -147 34 -33 92 -33 129 0 27 24 27 26
27 148 l0 123 -33 0 -32 0 0 -112 0 -113 -27 -3 -26 -3 0 103 c-1 57 -1 109
-1 116 -1 7 -14 12 -31 12 l-30 0 0 -124z"/>
<path d="M2213 1091 c-16 -13 -23 -31 -24 -65 -3 -58 27 -96 78 -96 29 0 33
-3 33 -25 0 -20 -5 -25 -25 -25 -14 0 -25 6 -25 13 0 8 -12 14 -30 14 -25 0
-30 -4 -30 -24 0 -61 96 -93 146 -49 57 49 29 155 -42 161 -16 2 -32 3 -36 4
-5 1 -8 12 -8 25 0 18 5 24 25 24 15 0 25 -6 25 -14 0 -9 12 -14 34 -14 31 0
34 3 31 26 -1 14 -12 34 -23 45 -28 25 -99 25 -129 0z"/>
<path d="M2405 1083 c1 -25 5 -28 43 -31 l42 -3 0 -115 c0 -63 3 -114 8 -115
4 0 17 -2 30 -5 25 -4 24 -8 23 149 l0 87 43 0 c51 0 55 3 48 35 -4 25 -5 25
-122 25 l-117 0 2 -27z"/>
<path d="M2680 965 c0 -80 3 -145 8 -146 4 -1 44 -2 90 -3 l82 -2 0 33 0 33
-54 0 c-40 0 -55 4 -60 16 -10 25 2 34 45 34 38 0 39 1 39 34 0 33 -2 34 -32
32 -45 -4 -55 1 -53 27 1 20 8 22 58 25 56 3 57 4 57 32 l0 30 -90 0 -90 0 0
-145z"/>
<path d="M2902 963 l3 -148 25 0 c24 0 25 3 30 75 l5 75 40 -74 c39 -73 57
-87 91 -74 11 4 14 35 14 149 l0 144 -33 0 -33 0 1 -70 c1 -38 -1 -70 -4 -70
-4 0 -22 30 -41 68 -31 60 -38 67 -68 70 l-33 3 3 -148z"/>
<path d="M3145 1080 c0 -29 2 -30 42 -30 l43 0 0 -115 c0 -69 4 -115 10 -116
6 -1 17 -1 25 -1 8 0 19 0 23 1 5 0 8 53 7 116 l-1 115 43 0 c41 0 43 1 43 30
l0 30 -118 0 -118 0 1 -30z"/>
<path d="M3461 983 c-46 -185 -45 -172 -8 -169 25 2 33 8 39 33 8 29 11 30 59
24 4 -1 9 -14 12 -29 5 -24 11 -28 36 -28 17 0 31 2 31 4 0 3 -16 67 -35 143
-19 76 -35 141 -35 144 0 3 -15 5 -33 5 l-34 0 -32 -127z m73 -28 c3 -8 1 -15
-4 -15 -6 0 -10 7 -10 15 0 8 2 15 4 15 2 0 6 -7 10 -15z"/>
<path d="M3669 1085 c0 -14 0 -65 0 -115 0 -49 0 -105 0 -123 l1 -33 65 1 c53
1 69 5 89 24 23 22 24 30 24 125 0 132 -10 146 -110 146 -66 0 -68 -1 -69 -25z
m117 -62 c1 -13 -3 -24 -7 -24 -38 -6 -44 -3 -47 24 -3 26 -1 28 25 25 21 -2
28 -9 29 -25z m-1 -115 c-1 -17 -9 -24 -28 -26 -23 -3 -27 0 -27 22 0 22 5 26
28 26 24 0 28 -4 27 -22z"/>
<path d="M3889 1085 c0 -14 -1 -70 -1 -125 0 -55 1 -110 1 -123 1 -22 4 -23
89 -22 l87 1 3 32 3 32 -60 0 -61 0 0 115 0 115 -30 0 c-25 0 -30 -4 -31 -25z"/>
<path d="M4106 973 c1 -76 2 -143 3 -148 1 -7 33 -11 81 -10 85 0 102 9 93 46
-4 16 -15 19 -59 19 -51 0 -54 2 -54 24 0 22 5 25 43 28 40 3 42 5 41 33 0 29
-2 30 -42 29 -40 0 -42 1 -42 28 0 27 2 28 53 28 62 0 66 2 59 35 -4 24 -7 25
-91 25 l-86 0 1 -137z"/>
<path d="M538 563 c16 -6 16 -135 0 -151 -9 -9 -3 -12 28 -12 58 0 84 10 84
31 0 23 -15 25 -24 4 -3 -8 -17 -15 -31 -15 -24 0 -25 3 -25 56 0 30 5 64 10
75 10 17 7 19 -22 18 -18 0 -27 -3 -20 -6z"/>
<path d="M670 556 c14 -14 13 -129 -2 -145 -11 -10 -3 -12 37 -10 66 2 85 7
85 25 0 17 -12 18 -27 3 -6 -6 -21 -9 -34 -7 -23 3 -25 8 -20 49 0 6 10 9 21
6 11 -3 23 -1 26 4 3 5 -2 10 -10 10 -9 1 -21 2 -28 3 -6 0 -13 13 -15 27 -3
22 1 27 22 31 18 4 30 -1 39 -14 12 -17 14 -18 20 -2 9 24 -9 33 -71 32 -37
-1 -50 -5 -43 -12z"/>
<path d="M854 561 c4 -6 -4 -36 -18 -67 -27 -58 -33 -94 -17 -94 5 0 11 10 13
23 2 18 9 22 38 22 30 0 35 -3 34 -22 -1 -21 4 -23 47 -23 26 0 51 5 54 10 3
6 1 10 -4 10 -6 0 -10 21 -10 50 1 28 3 50 5 50 2 0 22 -27 44 -60 22 -33 45
-60 50 -60 5 0 10 38 12 85 3 84 3 85 -21 85 -19 0 -21 -3 -12 -14 7 -8 11
-36 9 -63 l-3 -48 -34 53 c-32 51 -56 72 -82 72 -9 0 -9 -3 0 -14 15 -18 17
-124 3 -138 -13 -13 -21 0 -52 82 -17 42 -32 66 -44 68 -12 3 -16 0 -12 -7z
m33 -87 c-3 -3 -12 -4 -20 -2 -11 2 -12 9 -5 28 l10 25 11 -23 c5 -12 8 -25 4
-28z"/>
<path d="M1138 557 c13 -16 14 -115 1 -139 -12 -22 3 -24 21 -4 7 9 10 38 9
72 -3 51 0 58 20 65 17 7 28 3 47 -16 26 -26 30 -49 14 -90 -9 -23 -15 -27
-40 -23 -20 3 -30 0 -30 -9 0 -22 57 -16 80 9 29 31 27 98 -3 126 -18 17 -36
22 -76 22 -42 0 -51 -3 -43 -13z"/>
<path d="M1300 555 c16 -19 14 -123 -1 -142 -10 -11 -6 -13 20 -11 17 1 31 6
31 10 0 4 -3 8 -8 8 -4 0 -8 29 -8 64 0 53 3 65 17 69 21 6 33 -2 42 -27 9
-23 -9 -47 -29 -39 -8 3 -14 0 -14 -6 0 -6 4 -11 10 -11 5 0 20 -16 32 -35 13
-19 29 -35 36 -35 16 0 16 3 -8 44 -14 22 -17 37 -10 41 5 3 10 19 10 35 0 37
-23 50 -86 50 -40 0 -45 -2 -34 -15z"/>
<path d="M1494 560 c-46 -18 -49 -126 -4 -150 52 -28 118 2 124 55 8 80 -48
124 -120 95z m88 -34 c15 -22 8 -76 -13 -97 -36 -36 -89 -3 -89 55 1 33 16 60
40 68 16 6 51 -9 62 -26z"/>
<path d="M1732 548 c-64 -69 1 -178 85 -143 51 22 65 99 27 141 -30 32 -82 33
-112 2z m103 -31 c23 -55 -21 -119 -69 -101 -42 16 -45 112 -3 131 32 15 58 4
72 -30z"/>
<path d="M1902 558 c-23 -23 -14 -57 21 -78 56 -33 62 -41 42 -56 -19 -14 -44
-9 -62 13 -8 10 -13 11 -18 3 -11 -18 16 -40 51 -40 63 0 80 56 25 85 -15 7
-34 21 -41 30 -12 15 -12 19 4 31 22 16 34 10 46 -20 7 -19 9 -19 15 -3 15 37
-52 66 -83 35z"/>
<path d="M2035 545 c-51 -50 -18 -145 49 -145 19 0 45 9 60 21 57 45 19 149
-54 149 -19 0 -40 -9 -55 -25z m102 -26 c19 -36 16 -57 -11 -84 -43 -43 -103
-1 -90 64 13 61 74 73 101 20z"/>
<path d="M2186 561 c-4 -5 -1 -11 5 -13 14 -5 13 -116 -2 -134 -10 -12 -5 -14
27 -14 30 1 35 3 22 10 -12 8 -16 25 -16 72 0 35 5 66 10 69 15 10 46 -1 52
-18 9 -21 -12 -53 -29 -47 -8 4 -15 1 -15 -5 0 -6 4 -11 10 -11 5 0 20 -16 32
-35 13 -19 29 -35 36 -35 18 0 15 9 -13 46 -20 26 -22 33 -10 38 22 8 19 63
-4 76 -24 12 -98 13 -105 1z"/>
<path d="M2358 558 c13 -17 15 -138 2 -138 -5 0 -10 -4 -10 -10 0 -17 106 -12
120 5 17 21 7 29 -18 16 -12 -6 -30 -11 -41 -11 -17 0 -21 6 -21 31 0 26 3 31
20 26 11 -3 22 -2 25 3 3 4 -6 11 -20 14 -18 5 -25 13 -25 31 0 14 3 25 8 26
4 0 15 2 25 4 11 2 21 -5 27 -18 7 -19 9 -20 15 -5 11 29 -4 38 -62 38 -43 0
-53 -3 -45 -12z"/>
<path d="M2516 555 c-27 -21 -14 -56 31 -80 43 -23 49 -44 15 -56 -17 -7 -25
-4 -35 11 -16 27 -29 25 -25 -2 2 -19 10 -24 44 -26 27 -2 45 2 53 12 20 24 5
62 -29 76 -43 18 -54 35 -35 54 17 17 45 11 45 -10 0 -16 16 -19 25 -5 8 14
-24 41 -48 41 -12 0 -30 -7 -41 -15z"/>
<path d="M2736 548 c-43 -38 -41 -101 3 -135 19 -15 107 -17 116 -3 3 6 2 10
-2 10 -5 0 -9 9 -10 20 -1 11 2 20 8 20 5 0 9 5 9 10 0 6 -14 10 -30 10 -27 0
-29 -2 -19 -19 14 -22 6 -51 -14 -51 -8 0 -26 9 -41 21 -34 27 -35 71 -2 104
26 26 51 25 73 -3 17 -20 31 -6 17 16 -17 27 -77 27 -108 0z"/>
<path d="M2920 552 c0 -10 -11 -41 -25 -68 -28 -55 -32 -84 -11 -84 8 0 13 10
12 23 -1 19 5 22 37 25 36 3 42 -2 38 -36 -2 -10 15 -13 69 -11 71 2 108 18
94 41 -4 7 -10 4 -16 -6 -12 -22 -58 -21 -59 2 -3 36 -2 98 2 112 3 9 -5 16
-20 18 -15 2 -21 0 -16 -8 4 -6 7 -39 7 -73 1 -48 -2 -63 -14 -65 -10 -2 -22
17 -38 60 -23 66 -36 88 -51 88 -5 0 -9 -8 -9 -18z m33 -62 c4 -15 0 -20 -14
-20 -20 0 -23 8 -13 34 7 20 20 13 27 -14z"/>
<path d="M3156 559 c7 -13 7 -114 -1 -139 -5 -15 -2 -20 14 -20 11 0 23 5 26
10 3 6 2 10 -2 10 -13 0 -13 112 -1 128 6 6 7 12 2 13 -5 0 -17 2 -27 4 -9 2
-15 -1 -11 -6z"/>
<path d="M3220 559 c0 -5 3 -9 8 -9 4 0 7 -29 7 -65 1 -36 -3 -65 -7 -65 -4 0
-8 -4 -8 -10 0 -5 11 -10 25 -10 15 0 23 5 20 13 -8 20 -13 107 -6 107 3 0 22
-24 41 -53 53 -78 65 -74 65 22 1 65 -2 78 -15 76 -10 -1 -14 -11 -11 -31 5
-46 7 -84 4 -84 -1 0 -19 25 -39 55 -20 30 -40 55 -43 56 -3 0 -14 2 -23 4
-10 2 -18 -1 -18 -6z"/>
<path d="M3400 556 c14 -14 13 -129 -2 -144 -9 -9 -8 -12 4 -12 24 0 28 11 30
80 2 74 21 92 62 59 18 -14 26 -30 26 -53 0 -42 -18 -64 -55 -68 -24 -3 -27
-6 -12 -12 31 -14 67 2 82 38 23 55 3 110 -43 121 -42 9 -104 3 -92 -9z"/>
<path d="M3587 550 c-22 -17 -27 -29 -27 -64 0 -54 30 -86 82 -86 45 0 78 37
78 85 0 70 -78 108 -133 65z m92 -13 c6 -8 14 -28 17 -45 5 -25 1 -36 -19 -56
-31 -31 -38 -32 -68 -7 -26 21 -32 79 -10 105 16 19 64 21 80 3z"/>
</g>
</svg>
